<?xml version="1.0" standalone="no"?>
<!DOCTYPE svg PUBLIC "-//W3C//DTD SVG 20010904//EN"
 "http://www.w3.org/TR/2001/REC-SVG-20010904/DTD/svg10.dtd">
<svg version="1.0" xmlns="http://www.w3.org/2000/svg"
 width="100.000000pt" height="100.000000pt" viewBox="0 0 100.000000 100.000000"
 preserveAspectRatio="xMidYMid meet">
<metadata>
Created by potrace 1.14, written by Peter Selinger 2001-2017
</metadata>
<g transform="translate(0.000000,100.000000) scale(0.100000,-0.100000)"
fill="#000000" stroke="none">
<path d="M40 505 l0 -385 40 -1 c22 0 58 -1 80 -1 96 0 90 -3 90 47 l0 45 -49
0 c-30 0 -50 5 -53 13 -2 6 -3 138 -3 292 0 214 3 280 13 281 6 1 30 2 52 3
l40 1 0 45 0 45 -105 0 -105 0 0 -385z"/>
<path d="M740 845 l0 -45 53 0 52 0 0 -293 0 -292 -52 -3 -53 -3 0 -45 c0 -39
3 -44 23 -45 24 -1 168 0 180 0 4 1 7 174 7 386 l0 385 -105 0 -105 0 0 -45z"/>
<path d="M406 798 c-54 -15 -128 -90 -149 -152 -24 -69 -17 -226 11 -281 47
-92 118 -134 227 -135 99 0 140 14 190 66 61 62 78 120 73 242 -3 73 -9 107
-25 137 -25 48 -66 91 -108 113 -37 19 -165 25 -219 10z m170 -107 c48 -29 69
-82 69 -176 0 -125 -47 -187 -143 -187 -61 0 -102 25 -127 79 -21 43 -27 138
-14 188 11 40 53 93 83 105 37 15 100 11 132 -9z"/>
</g>
</svg>
