<?xml version="1.0" encoding="utf-8"?>
<!-- Generator: Adobe Illustrator 25.0.0, SVG Export Plug-In . SVG Version: 6.00 Build 0)  -->
<svg version="1.1" id="Layer_1" xmlns="http://www.w3.org/2000/svg" xmlns:xlink="http://www.w3.org/1999/xlink" x="0px" y="0px"
	 viewBox="0 0 217.5 36" style="enable-background:new 0 0 217.5 36;" xml:space="preserve">
<style type="text/css">
	.st0{fill:#FFFFFF;}
	.st1{fill:#E6007E;}
</style>
<g>
	<path class="st0" d="M37.4,22.1c1.4-1.7,2-4.1,2-7.3c0-3.1-0.7-5.6-2-7.3C36,5.8,34.2,5,31.9,5c-2.3,0-4.2,0.9-5.5,2.6
		c-1.4,1.7-2.1,4.1-2.1,7.3c0,3.2,0.7,5.6,2.1,7.3c1.4,1.7,3.2,2.6,5.5,2.6C34.2,24.7,36,23.8,37.4,22.1 M41.1,26.4
		c-2.1,2.2-5.2,3.3-9.2,3.3s-7.1-1.1-9.2-3.3c-2.8-2.7-4.3-6.5-4.3-11.5c0-5.1,1.4-9,4.3-11.5C24.8,1.1,27.9,0,31.9,0
		s7.1,1.1,9.2,3.3c2.8,2.6,4.2,6.4,4.2,11.5C45.3,19.8,43.9,23.7,41.1,26.4"/>
</g>
<polygon class="st0" points="66.1,0.9 72.2,0.9 62.7,28.8 57.1,28.8 47.7,0.9 53.9,0.9 60,22.1 "/>
<polygon class="st0" points="96.4,5.8 81.6,5.8 81.6,11.8 95.2,11.8 95.2,16.6 81.6,16.6 81.6,23.8 97.1,23.8 97.1,28.8 75.9,28.8 
	75.9,0.9 96.4,0.9 "/>
<g>
	<path class="st0" d="M107.5,5.7v7.5h6.3c1.2,0,2.2-0.2,2.8-0.5c1.1-0.5,1.7-1.6,1.7-3.2c0-1.7-0.5-2.8-1.6-3.4
		c-0.6-0.3-1.5-0.5-2.7-0.5H107.5z M119.6,1.6c1,0.4,1.9,1.1,2.6,2c0.6,0.7,1.1,1.5,1.4,2.4c0.3,0.9,0.5,1.8,0.5,2.9
		c0,1.3-0.3,2.6-1,3.9c-0.7,1.3-1.8,2.2-3.3,2.7c1.3,0.5,2.2,1.3,2.7,2.2c0.5,1,0.8,2.4,0.8,4.4v1.9c0,1.3,0.1,2.1,0.2,2.6
		c0.2,0.7,0.5,1.3,1.1,1.6v0.7h-6.5c-0.2-0.6-0.3-1.1-0.4-1.5c-0.2-0.8-0.2-1.6-0.2-2.4l0-2.6c0-1.8-0.3-3-0.9-3.6
		c-0.6-0.6-1.7-0.9-3.3-0.9h-5.7v11h-5.7v-28h13.4C117.1,0.9,118.5,1.1,119.6,1.6"/>
</g>
<path class="st0" d="M137.3,18.3h7.2l-3.5-11L137.3,18.3z M137.7,0.9h6.6l9.9,28h-6.3l-1.8-5.8h-10.3l-1.9,5.8h-6.1L137.7,0.9z"/>
<rect x="157.3" y="0.9" class="st0" width="5.8" height="28"/>
<g>
	<path class="st0" d="M174.4,5.7v7.5h6.3c1.2,0,2.2-0.2,2.8-0.5c1.1-0.5,1.7-1.6,1.7-3.2c0-1.7-0.5-2.8-1.6-3.4
		c-0.6-0.3-1.5-0.5-2.7-0.5H174.4z M186.5,1.6c1,0.4,1.9,1.1,2.6,2c0.6,0.7,1.1,1.5,1.4,2.4c0.3,0.9,0.5,1.8,0.5,2.9
		c0,1.3-0.3,2.6-1,3.9c-0.7,1.3-1.8,2.2-3.3,2.7c1.3,0.5,2.2,1.3,2.7,2.2c0.5,1,0.8,2.4,0.8,4.4v1.9c0,1.3,0.1,2.1,0.2,2.6
		c0.2,0.7,0.5,1.3,1.1,1.6v0.7h-6.5c-0.2-0.6-0.3-1.1-0.4-1.5c-0.2-0.8-0.2-1.6-0.2-2.4l0-2.6c0-1.8-0.3-3-0.9-3.6
		c-0.6-0.6-1.7-0.9-3.3-0.9h-5.7v11h-5.7v-28h13.4C184,0.9,185.5,1.1,186.5,1.6"/>
</g>
<rect x="196.1" y="23.2" class="st0" width="5.8" height="5.7"/>
<polygon class="st1" points="0,0 0,36 9.7,36 9.7,31.6 4.8,31.6 4.8,4.4 9.7,4.4 9.7,0 "/>
<polygon class="st1" points="207.8,0 207.8,4.4 212.6,4.4 212.6,31.6 207.8,31.6 207.8,36 217.5,36 217.5,0 "/>
</svg>
