<svg width="265" height="76" viewBox="0 0 265 76" fill="none" xmlns="http://www.w3.org/2000/svg">
<g clip-path="url(#clip0_11_2)">
<path d="M0 75.5906H264.567V-9.38055e-05H0V75.5906Z" fill="white"/>
<path d="M72.2884 34.9091C72.2884 36.8918 71.9125 38.5786 71.1609 39.9695C70.4151 41.3603 69.3971 42.4227 68.1069 43.1566C66.8226 43.8846 65.3784 44.2486 63.7745 44.2486C62.1587 44.2486 60.7087 43.8816 59.4244 43.1477C58.14 42.4138 57.125 41.3514 56.3793 39.9606C55.6335 38.5697 55.2607 36.8859 55.2607 34.9091C55.2607 32.9264 55.6335 31.2396 56.3793 29.8487C57.125 28.4579 58.14 27.3984 59.4244 26.6705C60.7087 25.9366 62.1587 25.5696 63.7745 25.5696C65.3784 25.5696 66.8226 25.9366 68.1069 26.6705C69.3971 27.3984 70.4151 28.4579 71.1609 29.8487C71.9125 31.2396 72.2884 32.9264 72.2884 34.9091ZM68.391 34.9091C68.391 33.6248 68.1986 32.5417 67.8139 31.6598C67.4351 30.7779 66.8995 30.1091 66.207 29.6534C65.5146 29.1977 64.7037 28.9698 63.7745 28.9698C62.8453 28.9698 62.0344 29.1977 61.342 29.6534C60.6495 30.1091 60.1109 30.7779 59.7262 31.6598C59.3474 32.5417 59.158 33.6248 59.158 34.9091C59.158 36.1934 59.3474 37.2765 59.7262 38.1584C60.1109 39.0402 60.6495 39.709 61.342 40.1648C62.0344 40.6205 62.8453 40.8484 63.7745 40.8484C64.7037 40.8484 65.5146 40.6205 66.207 40.1648C66.8995 39.709 67.4351 39.0402 67.8139 38.1584C68.1986 37.2765 68.391 36.1934 68.391 34.9091ZM77.2444 44H73.1251L79.4017 25.8182H84.3556L90.6233 44H86.504L81.9497 29.973H81.8076L77.2444 44ZM76.9869 36.8533H86.7171V39.854H76.9869V36.8533ZM94.9513 41.8871C94.3653 41.8871 93.8622 41.6799 93.442 41.2656C93.0277 40.8513 92.8206 40.3482 92.8206 39.7564C92.8206 39.1764 93.0277 38.6792 93.442 38.2649C93.8622 37.8506 94.3653 37.6435 94.9513 37.6435C95.5194 37.6435 96.0166 37.8506 96.4427 38.2649C96.8689 38.6792 97.0819 39.1764 97.0819 39.7564C97.0819 40.147 96.9813 40.5051 96.7801 40.8306C96.5848 41.1502 96.3273 41.4077 96.0077 41.603C95.6881 41.7924 95.336 41.8871 94.9513 41.8871ZM94.9513 32.9648C94.3653 32.9648 93.8622 32.7577 93.442 32.3434C93.0277 31.9291 92.8206 31.426 92.8206 30.8342C92.8206 30.2541 93.0277 29.7599 93.442 29.3516C93.8622 28.9373 94.3653 28.7301 94.9513 28.7301C95.5194 28.7301 96.0166 28.9373 96.4427 29.3516C96.8689 29.7599 97.0819 30.2541 97.0819 30.8342C97.0819 31.2307 96.9813 31.5917 96.7801 31.9173C96.5848 32.2369 96.3273 32.4914 96.0077 32.6808C95.6881 32.8701 95.336 32.9648 94.9513 32.9648ZM106.703 44H100.258V25.8182H106.757C108.585 25.8182 110.16 26.1822 111.48 26.9102C112.799 27.6322 113.814 28.6709 114.525 30.0263C115.241 31.3816 115.599 33.0033 115.599 34.8913C115.599 36.7853 115.241 38.4129 114.525 39.7741C113.814 41.1354 112.794 42.18 111.462 42.908C110.136 43.636 108.55 44 106.703 44ZM104.102 40.7063H106.544C107.68 40.7063 108.636 40.5051 109.411 40.1026C110.192 39.6942 110.778 39.0639 111.169 38.2116C111.565 37.3535 111.764 36.2467 111.764 34.8913C111.764 33.5478 111.565 32.4499 111.169 31.5977C110.778 30.7454 110.195 30.118 109.42 29.7156C108.645 29.3131 107.689 29.1119 106.552 29.1119H104.102V40.7063ZM122.291 25.8182V44H118.446V25.8182H122.291ZM137.509 31.6953C137.385 31.2633 137.211 30.8815 136.986 30.5501C136.761 30.2127 136.486 29.9286 136.16 29.6978C135.84 29.4611 135.473 29.2805 135.059 29.1562C134.651 29.032 134.198 28.9698 133.701 28.9698C132.772 28.9698 131.955 29.2006 131.251 29.6623C130.552 30.1239 130.008 30.7957 129.617 31.6776C129.226 32.5535 129.031 33.6248 129.031 34.8913C129.031 36.1579 129.223 37.2351 129.608 38.1229C129.993 39.0107 130.537 39.6883 131.242 40.1559C131.946 40.6175 132.778 40.8484 133.736 40.8484C134.606 40.8484 135.349 40.6945 135.965 40.3867C136.586 40.073 137.06 39.6321 137.385 39.0639C137.717 38.4957 137.882 37.824 137.882 37.0487L138.664 37.1641H133.976V34.2699H141.584V36.5604C141.584 38.1584 141.247 39.5315 140.572 40.6797C139.898 41.822 138.968 42.7038 137.785 43.3253C136.601 43.9408 135.246 44.2486 133.719 44.2486C132.014 44.2486 130.517 43.8728 129.226 43.1211C127.936 42.3635 126.93 41.2893 126.208 39.8984C125.492 38.5017 125.134 36.8445 125.134 34.9268C125.134 33.4531 125.347 32.1392 125.773 30.9851C126.205 29.825 126.809 28.8426 127.584 28.0376C128.359 27.2327 129.262 26.6201 130.292 26.1999C131.322 25.7797 132.437 25.5696 133.639 25.5696C134.669 25.5696 135.627 25.7205 136.515 26.0224C137.403 26.3183 138.19 26.7385 138.877 27.283C139.569 27.8275 140.134 28.4756 140.572 29.2273C141.01 29.973 141.291 30.7957 141.416 31.6953H137.509ZM148.316 25.8182V44H144.472V25.8182H148.316ZM150.786 28.9876V25.8182H165.719V28.9876H160.152V44H156.353V28.9876H150.786ZM169.09 44H164.971L171.247 25.8182H176.201L182.469 44H178.35L173.795 29.973H173.653L169.09 44ZM168.833 36.8533H178.563V39.854H168.833V36.8533ZM184.657 44V25.8182H188.502V40.8306H196.296V44H184.657Z" fill="white"/>
<path d="M23.1851 55.7747H34.2264V51.1773H29.1237V18.9573H34.2264V14.3827H23.1851V55.7747Z" fill="#E5007D"/>
<path d="M242.326 55.7747H231.285V51.1773H236.388V18.9573H231.285V14.3827H242.326V55.7747Z" fill="#E5007D"/>
</g>
<defs>
<clipPath id="clip0_11_2">
<rect width="264.567" height="75.5905" fill="white"/>
</clipPath>
</defs>
</svg>
