<?xml version="1.0" encoding="UTF-8" standalone="no"?>
<!DOCTYPE svg PUBLIC "-//W3C//DTD SVG 1.1//EN" "http://www.w3.org/Graphics/SVG/1.1/DTD/svg11.dtd">
<svg width="100%" height="100%" viewBox="0 0 265 76" version="1.1" xmlns="http://www.w3.org/2000/svg" xmlns:xlink="http://www.w3.org/1999/xlink" xml:space="preserve" xmlns:serif="http://www.serif.com/" style="fill-rule:evenodd;clip-rule:evenodd;stroke-linejoin:round;stroke-miterlimit:2;">
    <g id="g10" transform="matrix(1.33333,0,0,-1.33333,0,75.5905)">
        <g id="text16" transform="matrix(1,0,0,-1,27.4475,22.1121)">
            <text x="0px" y="0px" style="font-family:'Helvetica-Bold', 'Helvetica';font-weight:700;font-size:25px;fill:white;">OA:DIGITAL</text>
        </g>
        <g id="g18" transform="matrix(1,0,0,1,17.3887,14.8619)">
            <path id="path20" d="M0,0L8.281,0L8.281,3.448L4.454,3.448L4.454,27.613L8.281,27.613L8.281,31.044L0,31.044L0,0Z" style="fill:rgb(229,0,125);fill-rule:nonzero;"/>
        </g>
        <g id="g22" transform="matrix(1,0,0,1,181.745,14.8619)">
            <path id="path24" d="M0,0L-8.281,0L-8.281,3.448L-4.454,3.448L-4.454,27.613L-8.281,27.613L-8.281,31.044L0,31.044L0,0Z" style="fill:rgb(229,0,125);fill-rule:nonzero;"/>
        </g>
    </g>
</svg>
